<?xml version="1.0" standalone="no"?><!-- Generator: Gravit.io --><svg xmlns="http://www.w3.org/2000/svg" xmlns:xlink="http://www.w3.org/1999/xlink" style="isolation:isolate" viewBox="508 257.2 665 139.458" width="665px" height="139.458px"><defs><clipPath id="_clipPath_rTc8wxCSUtBkv9azAeOfhU17PExsgaTW"><rect x="508" y="257.2" width="665" height="139.458"/></clipPath></defs><g clip-path="url(#_clipPath_rTc8wxCSUtBkv9azAeOfhU17PExsgaTW)"><g><g><g><g><path d=" M 721.97 311.734 C 731.444 306.262 743.563 309.512 749.038 318.986 C 751.017 322.418 747.056 315.554 749.038 318.986 C 754.51 328.464 751.26 340.583 741.782 346.055 C 724.85 355.834 691.214 375.25 674.282 385.029 C 664.804 390.501 652.685 387.251 647.213 377.777 C 645.231 374.345 649.196 381.209 647.213 377.777 C 641.742 368.299 644.991 356.18 654.465 350.708 C 671.398 340.929 705.034 321.509 721.97 311.734 Z " fill="rgb(251,188,4)"/><g><path d=" M 721.97 311.734 C 731.444 306.262 743.563 309.512 749.038 318.986 C 751.017 322.418 747.056 315.554 749.038 318.986 C 754.51 328.464 751.26 340.583 741.782 346.055 C 724.85 355.834 691.214 375.25 674.282 385.029 C 664.804 390.501 652.685 387.251 647.213 377.777 C 645.231 374.345 649.196 381.209 647.213 377.777 C 641.742 368.299 644.991 356.18 654.465 350.708 C 671.398 340.929 705.034 321.509 721.97 311.734 Z " fill="none"/></g></g><g><path d=" M 742.087 311.909 C 751.565 317.38 754.814 329.499 749.343 338.978 C 747.36 342.41 751.321 335.545 749.343 338.978 C 743.871 348.456 731.748 351.705 722.274 346.23 C 705.342 336.455 671.706 317.034 654.77 307.259 C 645.295 301.788 642.046 289.669 647.518 280.191 C 649.5 276.758 645.535 283.623 647.518 280.191 C 652.989 270.712 665.108 267.467 674.586 272.938 C 691.518 282.713 725.154 302.134 742.087 311.909 Z " fill="rgb(15,157,88)"/><g><path d=" M 742.087 311.909 C 751.565 317.38 754.814 329.499 749.343 338.978 C 747.36 342.41 751.321 335.545 749.343 338.978 C 743.871 348.456 731.748 351.705 722.274 346.23 C 705.342 336.455 671.706 317.034 654.77 307.259 C 645.295 301.788 642.046 289.669 647.518 280.191 C 649.5 276.758 645.535 283.623 647.518 280.191 C 652.989 270.712 665.108 267.467 674.586 272.938 C 691.518 282.713 725.154 302.134 742.087 311.909 Z " fill="none"/></g></g></g><g><g><path d=" M 585.413 272.428 C 594.891 266.957 607.01 270.206 612.481 279.684 C 614.464 283.117 610.499 276.252 612.481 279.684 C 617.953 289.159 614.707 301.282 605.229 306.753 C 588.297 316.528 554.661 335.949 537.729 345.724 C 528.25 351.195 516.131 347.95 510.66 338.471 C 508.678 335.039 512.639 341.904 510.66 338.471 C 505.185 328.993 508.434 316.874 517.912 311.403 C 534.844 301.624 568.48 282.207 585.413 272.428 Z " fill="rgb(234,67,53)"/><g><path d=" M 585.413 272.428 C 594.891 266.957 607.01 270.206 612.481 279.684 C 614.464 283.117 610.499 276.252 612.481 279.684 C 617.953 289.159 614.707 301.282 605.229 306.753 C 588.297 316.528 554.661 335.949 537.729 345.724 C 528.25 351.195 516.131 347.95 510.66 338.471 C 508.678 335.039 512.639 341.904 510.66 338.471 C 505.185 328.993 508.434 316.874 517.912 311.403 C 534.844 301.624 568.48 282.207 585.413 272.428 Z " fill="none"/></g></g><g><path d=" M 605.229 350.4 C 614.707 355.875 617.953 367.994 612.481 377.469 C 610.499 380.901 614.464 374.037 612.481 377.469 C 607.01 386.947 594.891 390.196 585.413 384.725 C 568.48 374.946 534.844 355.529 517.912 345.75 C 508.434 340.279 505.185 328.16 510.66 318.682 C 512.639 315.25 508.678 322.114 510.66 318.682 C 516.131 309.204 528.25 305.958 537.729 311.429 C 554.661 321.204 588.297 340.625 605.229 350.4 Z " fill="rgb(66,133,244)"/><g><path d=" M 605.229 350.4 C 614.707 355.875 617.953 367.994 612.481 377.469 C 610.499 380.901 614.464 374.037 612.481 377.469 C 607.01 386.947 594.891 390.196 585.413 384.725 C 568.48 374.946 534.844 355.529 517.912 345.75 C 508.434 340.279 505.185 328.16 510.66 318.682 C 512.639 315.25 508.678 322.114 510.66 318.682 C 516.131 309.204 528.25 305.958 537.729 311.429 C 554.661 321.204 588.297 340.625 605.229 350.4 Z " fill="none"/></g></g></g></g><g><text transform="matrix(1,0,0,1,784,311.296)" style="font-family: 'Roboto', 'Helvetica Neue', Helvetica, Arial, sans-serif;;font-weight:400;font-size:56px;font-style:normal;fill:#ffffff;stroke:none;">GDG DevFest</text><text transform="matrix(1,0,0,1,784,382.528)" style="font-family: 'Roboto', 'Helvetica Neue', Helvetica, Arial, sans-serif;font-weight:400;font-size:56px;font-style:normal;fill:#ffffff;stroke:none;">Season 2019</text></g></g></g></svg>